<svg width="32" height="32" viewBox="0 0 32 32" fill="none" xmlns="http://www.w3.org/2000/svg">
<path d="M27.3514 10.6163C25.357 5.92918 20.803 2.65405 15.5053 2.65405C10.2076 2.65405 5.65292 5.92918 3.65918 10.6163" stroke="#38B26C" stroke-width="2.79377" stroke-linecap="round" stroke-linejoin="round"/>
<path d="M15.5062 9.28931C14.2772 10.5235 13.301 11.9978 12.6353 13.6254C11.9695 15.253 11.6277 17.001 11.6299 18.7664C11.6299 19.0981 11.6417 19.4272 11.6654 19.7537C12.8839 20.9867 13.851 22.4565 14.5105 24.0775C15.1699 25.6985 15.5084 27.4381 15.5062 29.1949C15.504 27.438 15.8424 25.6982 16.5019 24.0772C17.1613 22.4561 18.1285 20.9861 19.3471 19.753C19.3707 19.4274 19.3826 19.0986 19.3826 18.7664C19.3848 17.001 19.0429 15.253 18.3772 13.6254C17.7115 11.9978 16.7353 10.5235 15.5062 9.28931Z" stroke="#38B26C" stroke-width="2.79377" stroke-linecap="round" stroke-linejoin="round"/>
<path d="M15.5051 29.1947C8.36879 29.1947 2.58398 23.2536 2.58398 15.9243C5.98411 15.9198 9.2481 17.296 11.6643 19.7528C12.8829 20.9859 13.8501 22.4559 14.5095 24.077C15.1689 25.6981 15.5074 27.4378 15.5051 29.1947Z" stroke="#38B26C" stroke-width="2.79377" stroke-linecap="round" stroke-linejoin="round"/>
<path d="M15.5059 29.1947C22.6422 29.1947 28.427 23.2536 28.427 15.9243C25.0269 15.9198 21.7629 17.296 19.3467 19.7528C18.1282 20.9859 17.161 22.4559 16.5015 24.077C15.8421 25.6981 15.5036 27.4378 15.5059 29.1947Z" stroke="#38B26C" stroke-width="2.79377" stroke-linecap="round" stroke-linejoin="round"/>
</svg>
